<svg id="Layer_1" xmlns="http://www.w3.org/2000/svg" viewBox="0 0 199.29109 60.0005"><style>.st0{fill:#00BBD3;} .st1{fill:#0090BA;} .st2{fill:#FFFFFF;} .st3{fill:#78787A;}</style><path class="st0" d="M25.117.006C30.64.006 36.16-.01 41.683.01c5.223.02 8.31 3.184 8.313 8.48.004 8.897.002 17.795 0 26.693 0 12.823-9.184 23.04-21.808 24.613C14.04 61.56 2.758 51.66.69 40.563c-.376-2.025-.63-4.104-.65-6.16C-.026 26.02.01 17.643.014 9.265.018 3.023 3.017.01 9.214.005c5.3-.002 10.6 0 15.903 0zM72.44 46.174c-.66 0-1.18-.54-1.18-1.18v-4.74h-6.882v4.74c0 .64-.54 1.18-1.22 1.18-.64 0-1.16-.54-1.16-1.18V33.75c0-.62.52-1.16 1.2-1.16.64 0 1.18.54 1.18 1.16v4.402h6.88v-4.4c0-.62.522-1.16 1.222-1.16.64 0 1.18.54 1.18 1.16v11.242c0 .64-.54 1.18-1.22 1.18zm7.496.12c-3.1 0-4.98-2.3-4.98-5.08 0-2.76 1.88-5.062 4.98-5.062s4.982 2.3 4.982 5.06c0 2.782-1.88 5.082-4.982 5.082zm0-8.242c-1.78 0-2.76 1.48-2.76 3.16 0 1.702.98 3.182 2.76 3.182 1.76 0 2.74-1.48 2.74-3.18 0-1.68-.98-3.162-2.74-3.162zm13.915 8.122c-.6 0-1.06-.48-1.06-1.06v-.34c-.7.78-1.9 1.52-3.42 1.52-2.08 0-3.1-1.1-3.1-3.06v-5.922c0-.56.46-1.04 1.1-1.04.56 0 1.04.48 1.04 1.04v5.142c0 1.48.76 1.94 1.92 1.94 1.06 0 1.96-.6 2.46-1.24v-5.842c0-.56.46-1.04 1.1-1.04.56 0 1.04.48 1.04 1.04v7.802c0 .58-.48 1.06-1.08 1.06zm6.318.12c-1.3 0-3.02-.4-3.78-1.26-.12-.14-.2-.32-.2-.52 0-.5.44-.9.92-.9.16 0 .34.04.48.14.74.5 1.74.86 2.66.86 1.26 0 1.88-.54 1.88-1.28 0-1.88-5.84-.52-5.84-4.24 0-1.582 1.38-2.942 3.84-2.942 1.3 0 2.76.4 3.42 1.16.12.14.18.3.18.48 0 .46-.398.82-.858.82-.14 0-.3-.04-.44-.12-.62-.42-1.44-.68-2.3-.68-1.083 0-1.76.52-1.76 1.18 0 1.7 5.82.42 5.82 4.26 0 1.722-1.42 3.042-4.023 3.042zm13.776-4.38h-6.36c.14 1.44 1.24 2.66 3.04 2.66.7 0 1.5-.22 2.16-.64.14-.08.3-.12.44-.12.44 0 .9.36.9.88 0 1.1-2.48 1.6-3.72 1.6-2.9 0-5.06-2.02-5.06-5.08 0-2.8 2.04-5.062 4.9-5.062 2.26 0 3.9 1.36 4.5 3.44.12.4.24.86.24 1.28 0 .56-.46 1.042-1.04 1.042zm-3.7-4.04c-1.76 0-2.58 1.4-2.68 2.56h5.36c-.04-1.12-.8-2.56-2.68-2.56zm11.14 8.494c-1.96 0-4.04-.64-4.94-1.7-.16-.2-.24-.42-.24-.66 0-.62.54-1.14 1.14-1.14.22 0 .46.058.64.2.92.7 2.1 1.2 3.5 1.2 1.88 0 2.64-.94 2.64-1.802 0-2.76-7.762-1.04-7.762-5.96 0-2.22 1.92-3.92 4.863-3.92 1.6 0 3.6.5 4.48 1.46.16.18.24.42.24.64 0 .62-.58 1.1-1.16 1.1-.22 0-.44-.06-.64-.2-.94-.62-2.04-.9-3.12-.9-1.36 0-2.22.66-2.22 1.64 0 2.46 7.74.92 7.74 5.9 0 2.24-1.56 4.142-5.16 4.142zm8.814-12.403c0 .74-.6 1.32-1.32 1.32s-1.32-.58-1.32-1.32c0-.72.6-1.3 1.32-1.3s1.32.58 1.32 1.3zm-1.32 12.283c-.6 0-1.06-.48-1.06-1.06v-7.803c0-.56.46-1.04 1.1-1.04.56 0 1.04.48 1.04 1.04v7.802c0 .58-.48 1.06-1.08 1.06zm6.5.12c-1.64 0-2.5-.88-2.5-2.5v-5.522h-.8c-.5 0-.922-.42-.922-.96 0-.5.42-.92.92-.92h.8v-1.7c0-.58.482-1.06 1.102-1.06.58 0 1.04.48 1.04 1.06v1.7h1.18c.5 0 .9.42.9.96 0 .5-.4.92-.9.92h-1.18v4.98c0 .74.42 1.14.92 1.14.14 0 .32-.06.44-.06.58 0 .94.4.94.922 0 .64-.58 1.04-1.94 1.04zm6.668 0c-1.64 0-2.5-.88-2.5-2.5v-5.522h-.8c-.5 0-.922-.42-.922-.96 0-.5.42-.92.92-.92h.8v-1.7c0-.58.482-1.06 1.102-1.06.58 0 1.04.48 1.04 1.06v1.7h1.18c.5 0 .9.42.9.96 0 .5-.4.92-.9.92h-1.18v4.98c0 .74.42 1.14.92 1.14.14 0 .32-.06.44-.06.58 0 .94.4.94.922 0 .64-.58 1.04-1.94 1.04zm11.314-4.38h-6.363c.14 1.44 1.24 2.66 3.04 2.66.7 0 1.5-.22 2.16-.64.14-.08.3-.12.44-.12.44 0 .9.36.9.88 0 1.1-2.48 1.6-3.72 1.6-2.9 0-5.06-2.02-5.06-5.08 0-2.8 2.04-5.063 4.9-5.063 2.26 0 3.902 1.36 4.5 3.442.12.4.242.86.242 1.28 0 .56-.46 1.04-1.04 1.04zm-3.703-4.04c-1.76 0-2.58 1.4-2.68 2.56h5.36c-.04-1.12-.8-2.56-2.68-2.56zm10.542.438c-.86.08-1.68.44-2.2 1.18v5.62c0 .58-.48 1.062-1.06 1.062h-.04c-.58 0-1.04-.48-1.04-1.06v-7.803c0-.56.46-1.04 1.1-1.04.56 0 1.04.48 1.04 1.04v.5c.52-.7 1.28-1.54 2.3-1.54.58 0 .94.4.94.92 0 .64-.44 1.04-1.04 1.12zm1.82 7.96c-.78 0-1.42-.66-1.42-1.42 0-.78.64-1.42 1.42-1.42s1.42.64 1.42 1.42c0 .76-.64 1.42-1.42 1.42zm10.77-1.058c-.7.64-1.7 1.08-3.1 1.08-2.94 0-5-2.14-5-5.08 0-2.922 2.06-5.063 5-5.063 1.48 0 2.72.52 3.26 1.3.1.12.14.28.14.44 0 .56-.5.92-1 .92-.22 0-.44-.06-.62-.2-.5-.38-1.06-.56-1.68-.56-1.74 0-2.9 1.3-2.9 3.162s1.16 3.18 2.9 3.18c.64 0 1.18-.2 1.68-.58.2-.14.4-.2.62-.2.52 0 1.02.38 1.02.94 0 .24-.1.5-.32.66zm6.12 1.08c-3.1 0-4.98-2.3-4.98-5.08 0-2.762 1.88-5.063 4.98-5.063s4.98 2.3 4.98 5.062c0 2.78-1.88 5.08-4.98 5.08zm0-8.242c-1.78 0-2.76 1.48-2.76 3.16 0 1.7.98 3.18 2.76 3.18 1.76 0 2.74-1.48 2.74-3.18 0-1.68-.98-3.16-2.74-3.16zm19.28 8.122c-.58 0-1.06-.48-1.06-1.06v-5.342c0-1.02-.44-1.72-1.56-1.72-.94 0-1.8.66-2.22 1.26v5.8c0 .58-.48 1.062-1.08 1.062s-1.06-.48-1.06-1.06v-5.342c0-1.02-.46-1.72-1.58-1.72-.92 0-1.78.66-2.2 1.28v5.78c0 .58-.48 1.062-1.08 1.062s-1.06-.48-1.06-1.06v-7.803c0-.56.46-1.04 1.1-1.04.56 0 1.04.48 1.04 1.04v.4c.4-.6 1.68-1.56 3.14-1.56 1.44 0 2.32.72 2.64 1.78.56-.88 1.84-1.78 3.3-1.78 1.76 0 2.78.96 2.78 2.92v6.042c0 .58-.48 1.06-1.1 1.06z"/><path class="st1" d="M31.953 35.114c-.016.002-.033 0-.048 0-.085.008-.17.014-.26.006h.017c.087.008.173.002.257-.005.013-.002.03 0 .042 0v-.002h-.01z"/><path class="st2" d="M40.51 20.063c.09 0 .18-.003.27-.007 1.334-.07 2.564-.642 3.463-1.614.907-.98 1.37-2.247 1.3-3.568-.115-2.228-1.76-4.082-3.932-4.55-.72-1.002-1.9-1.62-3.16-1.62-.16 0-.32.01-.475.028-1.267.154-2.346.9-2.94 1.98-2.373.333-4.15 2.39-4.053 4.777-.373.52-.57 1.153-.534 1.8.033.64.28 1.22.668 1.68-1.073.15-1.9 1.074-1.9 2.19v.56l-2.256-2.54-1.66-1.96c-.033-.042-.07-.08-.11-.116-.42-.416-.99-.653-1.582-.653-.577 0-1.114.225-1.51.63-.463.473-1.537 1.8-1.73 2.04L6.453 34.83c-.81.916-.726 2.32.19 3.13l.073.06 3.257 2.47c.502.38 1.195.487 1.79.274l.1-.038 2.77 6.616c.383.91 1.34 1.5 2.438 1.5h12.926c1.085 0 2.037-.578 2.427-1.475l2.873-6.647c.09.043.182.082.277.116.206.074.422.11.64.11.414 0 .822-.136 1.15-.385l3.257-2.464.072-.06c.444-.392.708-.934.744-1.525.036-.59-.16-1.16-.553-1.605l-4.366-4.93V21.16c0-.466-.145-.9-.393-1.257.643-.058 1.257-.24 1.815-.538.77.454 1.66.698 2.57.698z"/><circle class="st0" cx="25.383" cy="44.507" r=".387"/><path class="st1" d="M19.235 34.355h-.01c-.913 0-1.654.645-1.654 1.44v2.003c0 .138.13.25.29.25h2.74c.16 0 .29-.112.29-.25v-2.003c0-.795-.74-1.44-1.655-1.44zm8.388 0h-.01c-.914 0-1.655.645-1.655 1.44v2.003c0 .138.13.25.29.25h2.74c.16 0 .29-.112.29-.25v-2.003c0-.795-.74-1.44-1.656-1.44z"/><path class="st0" d="M22.28 27.496c-.04 0-.076-.002-.114-.004.038.003.076.004.115.004zm2.873.07h.002l-.115.002c.038 0 .076 0 .114-.003zm-11.34 9.12c.008 0 .014-.002.02-.003-.006 0-.012.003-.02.004z"/><path class="st1" d="M39.953 35.728l-1.023-1.155-3.66-4.134L30.455 25l-4.436-5.01-1.67-1.97v.003c-.358-.394-.99-.457-1.366-.075-.45.462-1.668 1.972-1.668 1.972L8.406 34.5l-1.024 1.154c-.356.403-.32 1.018.084 1.375l3.256 2.47c.178.133.412.17.622.094.54-.193.903-.67.89-1.2 0-.01.005-.02.005-.03l-.035-.08c.758-.08 1.32-.684 1.257-1.358-.007-.075-.024-.146-.045-.216.08.006.164.007.248 0 .05-.005.1-.01.148-.02l.02-.006c.043-.01.085-.018.125-.03l.01-.003c.09-.025.175-.06.257-.1.467-.24.766-.7.72-1.2-.01-.1-.037-.197-.07-.288h.042c.007.003.015 0 .023.003.076.006.153.01.233.005h.03v-.002h.015c.767-.074 1.337-.682 1.273-1.36 0-.01-.003-.02-.005-.028h.032c.77-.072 1.342-.682 1.28-1.363-.01-.074-.026-.146-.047-.215.08.004.164.006.25-.002.768-.072 1.34-.682 1.277-1.363-.01-.1-.035-.192-.07-.282l.07.006c.046 0 .093.004.14.003h.016c.063.003.126.003.19-.003.06-.006.117-.016.173-.027l.02-.005c.05-.013.104-.027.155-.044.588-.194.985-.715.93-1.288 0-.01-.002-.018-.004-.028h.032c.77-.072 1.34-.682 1.278-1.362-.007-.075-.024-.146-.045-.215.04.004.077.005.116.005.044 0 .088 0 .134-.005.618-.058 1.1-.466 1.236-.976.107.544.607.988 1.255 1.048.046.004.09.005.135.005.037 0 .075 0 .113-.003-.02.07-.037.14-.044.215-.064.68.51 1.29 1.28 1.36h.03c0 .01-.005.02-.006.03-.057.623.422 1.19 1.098 1.33.06.014.12.024.182.03h.016c.11.01.214.004.318-.007-.034.09-.06.183-.07.282-.04.432.18.83.538 1.087l.012-.003c.073.053.15.102.234.14v.008c.152.066.318.112.496.13.084.007.167.005.25 0-.022.07-.04.14-.047.215-.062.68.51 1.29 1.28 1.363.01 0 .02-.002.03 0 0 .008-.003.017-.004.027-.062.68.51 1.29 1.28 1.362h.037c.087.006.173 0 .257-.007h.043c-.034.09-.06.185-.07.285-.063.68.51 1.29 1.28 1.362.084.008.166.007.248 0-.02.07-.037.142-.044.217-.04.413.16.796.49 1.05h.016c.146.11.316.198.503.252l.032.006c.055.015.11.028.168.037.023.002.043.01.065.01.007 0 .014.005.02.005h.033l-.007.027c-.05.56.33 1.074.897 1.277.208.075.442.04.62-.095l3.256-2.467c.403-.357.44-.972.084-1.375v.005z"/><path class="st0" d="M34.816 38.306l-.033-.007c-.193-.056-.37-.14-.517-.254-.332-.255-.53-.638-.49-1.05.007-.076.024-.147.045-.217-.08.006-.162.007-.25 0-.766-.07-1.34-.68-1.275-1.363.01-.1.036-.195.07-.286h-.043c-.083.01-.17.015-.257.008h-.04c-.77-.074-1.34-.684-1.278-1.364 0-.01.005-.02.006-.028-.01-.002-.02 0-.03 0-.77-.073-1.343-.683-1.28-1.364.007-.074.025-.146.046-.215-.083.005-.166.007-.25 0-.178-.018-.344-.064-.496-.13-.087-.04-.17-.093-.245-.147-.36-.256-.578-.655-.538-1.087.01-.1.035-.192.07-.282-.105.01-.21.018-.32.008h-.015c-.062-.005-.123-.015-.182-.03-.675-.14-1.154-.706-1.096-1.33 0-.01.005-.02.006-.03h-.03c-.77-.07-1.343-.68-1.28-1.36.007-.076.024-.147.045-.216-.036.002-.074.003-.112.003-.044 0-.09 0-.134-.005-.648-.06-1.148-.504-1.255-1.048-.137.51-.62.918-1.237.976-.046.005-.09.006-.134.006-.04 0-.078 0-.116-.003.02.07.038.14.045.216.062.68-.51 1.29-1.28 1.362h-.03c0 .01.003.018.004.028.053.573-.345 1.094-.93 1.288-.052.017-.105.032-.158.043-.007 0-.013 0-.02.003-.055.01-.112.02-.17.026-.066.005-.13.005-.192.002h-.016c-.047 0-.094 0-.14-.004l-.07-.007c.035.09.06.184.07.283.064.68-.51 1.29-1.28 1.363-.083.008-.166.006-.247 0 .02.07.04.142.046.216.064.68-.51 1.29-1.28 1.362h-.03c0 .01.004.018.005.028.065.678-.505 1.286-1.27 1.36h-.016l-.008.002h-.028c-.08.006-.157 0-.234-.005h-.025c-.016-.002-.03 0-.045-.002.034.09.06.186.07.286.047.5-.252.964-.72 1.2-.08.043-.167.078-.258.105l-.01.003c-.04.013-.08.02-.123.03-.006 0-.012.004-.02.005-.047.01-.097.017-.147.02-.084.01-.167.008-.248.002.02.07.037.14.044.215.063.674-.5 1.277-1.257 1.358l.034.08-.003.03 3.546 8.47c.183.438.703.735 1.288.735h3.575l-.007-6.115c0-.274.23-.497.52-.497h4.598c.286 0 .518.224.518.498l.024 6.115h3.695c.58 0 1.097-.29 1.285-.725l3.688-8.53c-.053-.008-.102-.024-.152-.037v.004zM20.89 35.803v1.994c0 .032-.01.062-.02.09-.044.094-.148.16-.27.16h-2.74c-.16 0-.29-.112-.29-.25v-2.002c0-.795.742-1.44 1.655-1.44h.012c.914 0 1.654.645 1.654 1.44v.01-.002zm8.39 0v1.994c0 .138-.13.25-.29.25h-2.742c-.16 0-.29-.112-.29-.25v-2.002c0-.795.74-1.44 1.655-1.44h.01c.432 0 .824.145 1.118.38.33.264.54.64.54 1.06v.01-.002z"/><path class="st0" d="M19.8 30.434l.02-.005c-.01 0-.015 0-.02.002zm-5.842 6.22l.01-.004c-.004 0-.007.002-.01.003zm20.858 1.652l-.033-.007.033.004zm.457-17.146c0-.536-.435-.972-.973-.972h-2.87c-.54 0-.974.436-.974.973v3.845l4.813 5.436c0-.014.003-.026.003-.04v-9.24z"/><path class="st1" d="M40.715 18.814c2.086-.11 3.692-1.843 3.586-3.875-.094-1.866-1.6-3.327-3.454-3.475-.472-1.006-1.553-1.643-2.72-1.5-1.11.135-1.973.932-2.244 1.944-.117-.005-.237-.005-.36 0-1.916.1-3.392 1.695-3.295 3.563.007.148.028.292.054.434-.384.314-.62.793-.592 1.318.046.89.823 1.57 1.736 1.524.35-.02.667-.14.925-.336.466.192.983.29 1.524.26.803-.04 1.526-.347 2.09-.823.722.645 1.697 1.017 2.752.963zM25.757 40.986h-4.6c-.287 0-.52.223-.52.497l.01 6.115H26.3l-.025-6.115c0-.274-.232-.497-.518-.497zm-.374 3.908c-.214 0-.388-.173-.388-.387s.174-.387.388-.387c.213 0 .387.173.387.387s-.174.387-.387.387z"/><path class="st3" d="M66.84 16.653c1.147 0 1.706.616 2.036 1.433l2.335-.845c-.67-1.79-2.05-2.906-4.37-2.906-2.85 0-4.84 2.235-4.84 5.316s1.99 5.315 4.842 5.315c2.32 0 3.67-1.103 4.34-2.895l-2.304-.846c-.33.817-.89 1.42-2.035 1.42-1.432 0-2.206-1.22-2.206-2.996 0-1.777.775-2.995 2.208-2.995zM78.904 22.9c-.17-.042-.27-.157-.27-.43v-2.72c0-1.476-.79-2.55-3.125-2.55-2.22 0-2.924.945-3.268 1.905l1.936.717c.272-.53.587-.817 1.218-.817.56 0 .89.2.903.702.014.66-1.548.674-2.293.774-.974.13-2.364.588-2.364 2.265 0 1.418.99 2.22 2.294 2.22.758 0 1.776-.314 2.535-.93.13.66.56.86 1.174.86.66 0 1.376-.244 1.777-.388v-1.633c-.214.03-.386.057-.515.03l-.002-.003zm-2.62-.042c-.36.23-.775.386-1.133.444-.544.086-.99-.115-.99-.702 0-.473.346-.917 1.12-1.018.33-.043.716-.1 1.003-.23v1.506zm6.463-4.485c-.13-.86-.774-1.075-1.39-1.075-.66 0-1.376.243-1.777.387v1.705c.214-.03.386-.057.515-.03.172.044.258.16.258.43v4.945h2.407v-4.543c.215-.3.516-.616 1.118-.673.4-.046.73.083 1.017.2l.83-2.195c-.902-.53-2.42-.487-2.98.846zm6.375-1.175c-1.804 0-3.71 1.246-3.71 3.868 0 2.393 1.576 3.898 3.668 3.898 1.562 0 2.923-.845 3.568-2.293l-1.934-.7c-.345.66-.918 1.02-1.635 1.02-.63.04-1.09-.23-1.348-.747l5.03-1.174c0-2.565-1.792-3.87-3.64-3.87zm-1.604 3.453c.058-.914.73-1.43 1.447-1.502.602-.057 1.233.215 1.49.817l-2.937.688zm12.522 1.764c-.4.1-1.03.144-1.332.144-1.462 0-2.55-1.003-2.55-2.923s1.074-2.98 2.593-2.98c.788 0 1.504.286 2.135 1.017l1.59-1.66c-1.016-1.19-2.377-1.677-3.78-1.677-2.853 0-5.174 2.035-5.174 5.373 0 3.24 2.18 5.23 5.13 5.23 1.376 0 2.995-.43 3.91-1.232V19.95h-2.52v2.463zm10.757.387c-.172-.042-.258-.156-.258-.43V17.43h-2.408v4.814c-.344.29-.802.533-1.232.533-1.118 0-1.218-.817-1.218-1.792V17.43h-2.407v4.8c0 1.906 1.117 2.737 2.364 2.737.887 0 1.862-.416 2.535-1.175.13.83.702 1.074 1.36 1.074.66 0 1.377-.244 1.778-.387v-1.706c-.214.028-.386.057-.515.028zm2.708-5.5c-.66 0-1.376.242-1.777.386v1.705c.214-.03.387-.056.515-.03.173.045.26.16.26.43v4.946h2.407v-6.018c0-1.104-.66-1.42-1.405-1.42zm10.15 5.537c-.17-.043-.257-.158-.257-.43V13.98h-2.407v3.883c-.502-.415-1.12-.716-1.95-.716-2.005 0-3.395 1.72-3.395 3.883s1.39 3.883 3.37 3.883c1.002 0 1.732-.444 2.277-1.003.058.745.474.99 1.104.99.66 0 1.376-.245 1.777-.388v-1.705c-.214.03-.386.057-.515.03h-.002zm-2.664-1.39c0 .702-.717 1.332-1.65 1.332-.93 0-1.49-.63-1.49-1.777 0-1.132.56-1.75 1.46-1.75.62 0 1.38.417 1.68.947v1.245zm7.23 1.534c-.63.043-1.09-.23-1.346-.745l5.03-1.175c0-2.567-1.792-3.87-3.64-3.87-1.806 0-3.71 1.246-3.71 3.87 0 2.39 1.575 3.895 3.667 3.895 1.563 0 2.924-.845 3.57-2.292l-1.936-.702c-.344.66-.917 1.02-1.633 1.02zm-.114-3.84c.602-.06 1.233.215 1.49.817l-2.937.687c.056-.917.73-1.433 1.446-1.504zm-13.902-5.55c-.304 0-.572.16-.726.4-.153-.24-.42-.4-.727-.4-.476 0-.863.387-.863.864 0 .094.016.184.043.27.24.827 1.51 1.727 1.546 1.752v.002h.002v-.002c.037-.025 1.308-.925 1.547-1.753.028-.085.044-.175.044-.27 0-.476-.39-.863-.867-.863z"/></svg>